<?xml version="1.0" encoding="iso-8859-1"?>
<!-- Uploaded to: SVG Repo, www.svgrepo.com, Generator: SVG Repo Mixer Tools -->
<svg fill="#000000" version="1.1" id="Layer_1" xmlns="http://www.w3.org/2000/svg" xmlns:xlink="http://www.w3.org/1999/xlink" 
	 viewBox="0 0 512 512" xml:space="preserve">
<g>
	<g>
		<polygon points="481.583,5.07 481.583,66.1 461.306,66.1 461.306,96.517 481.583,96.517 481.583,274.807 461.306,274.807 
			461.306,305.225 481.583,305.225 481.583,366.256 512,366.256 512,305.225 512,66.1 512,5.07 		"/>
	</g>
</g>
<g>
	<g>
		<rect x="385.265" y="48.029" width="45.622" height="275.266"/>
	</g>
</g>
<g>
	<g>
		<polygon points="50.695,96.517 50.695,66.1 30.417,66.1 30.417,5.07 0,5.07 0,66.1 0,305.225 0,366.256 30.417,366.256 
			30.417,305.225 50.695,305.225 50.695,274.807 30.417,274.807 30.417,96.517 		"/>
	</g>
</g>
<g>
	<g>
		<rect x="309.232" y="48.029" width="45.621" height="275.266"/>
	</g>
</g>
<g>
	<g>
		<rect x="233.189" y="48.029" width="45.621" height="275.266"/>
	</g>
</g>
<g>
	<g>
		<rect x="157.156" y="48.029" width="45.622" height="275.266"/>
	</g>
</g>
<g>
	<g>
		<polygon points="81.113,48.031 81.113,66.1 81.113,305.225 81.113,394.229 126.733,394.229 126.733,353.712 126.733,48.031 		"/>
	</g>
</g>
<g>
	<g>
		<polygon points="74.393,424.646 83.507,506.93 124.339,506.93 133.453,424.646 		"/>
	</g>
</g>
</svg>